<svg id="Layer_2" data-name="Layer 2" xmlns="http://www.w3.org/2000/svg" viewBox="0 0 935.43 793.7"><defs><style>.cls-1,.cls-2,.cls-5,.cls-8,.cls-9{fill:none;stroke-linecap:round;}.cls-1{stroke:#a7af00;}.cls-1,.cls-2{stroke-linejoin:round;stroke-width:12px;}.cls-2{stroke:#a7cd00;}.cls-3{fill:#ffe23c;}.cls-4{fill:#a9ce05;}.cls-5{stroke:#7bbd25;}.cls-5,.cls-8,.cls-9{stroke-miterlimit:10;stroke-width:6px;}.cls-6{fill:#55ae2c;}.cls-7{fill:#7bbd25;}.cls-8{stroke:#55ae2e;}.cls-9{stroke:#71b927;}.cls-10{fill:#fed23d;}.cls-11{fill:#f9c03d;}</style></defs><title>반려동물앱 - 꽃</title><path class="cls-1" d="M491.42,640.69s1.14-128.46,78.22-217"/><path class="cls-2" d="M410.92,334.68s89.63,203.81,83.93,306"/><path class="cls-3" d="M681.49,368.24a12.88,12.88,0,0,0,0-6.41,1.84,1.84,0,0,0-.52-1c-.87-.7-2.17.45-3.24.14s-1.18-1.94-1-3.12c.62-3.68,1.14-7.6-.32-11s-5.65-6-9-4.35c-1.08.52-2,1.42-3.08,1.88s-2.68.27-3.15-.85.26-2.06.43-3.11c.29-1.7-.73-3.34-1.82-4.68a27.69,27.69,0,0,0-9.34-7.36,3.63,3.63,0,0,0-2.86-.46c-1.43.57-1.82,2.64-3.27,3.15a2.75,2.75,0,0,1-2.93-1.22,22.62,22.62,0,0,1-1.53-3c-1.68-3.19-5.16-4.92-8.42-6.45-4-1.87-8.16-3.78-12.56-3.69a3.25,3.25,0,0,0-1.84.44c-1.3.91-1.17,3.27-2.67,3.79s-2.54-1.09-2.88-2.48-.49-3-1.69-3.82a4.24,4.24,0,0,0-1.82-.51,74.84,74.84,0,0,0-9.1-.55,3.27,3.27,0,0,0-2.73.9c-.88,1.2.08,3.18-.95,4.26s-2.83.14-3.57-1.1-1-2.8-2-3.82-2.86-1.28-4.44-1.38a21.42,21.42,0,0,0-6.5.25,7.3,7.3,0,0,0-5,3.79c-.48,1.07-.8,2.5-1.94,2.78-1.57.32-1.54-1.3-2.8-2.29a4.76,4.76,0,0,0-2.84-.7c-1.21,0-2.63,0-3.3,1-.81,1.22.08,2.81.84,4.06s1.26,3.15,0,4a13.63,13.63,0,0,0-14.55-.81c-2.15,1.23-4.06,3.37-4,5.85,0,1.77,1,3.82-.18,5.11s-3.49.38-5.31-.07a10.61,10.61,0,0,0-8.33,1.89,30.12,30.12,0,0,0-6.15,6.25,4.49,4.49,0,0,0-1.31,2.77,4.7,4.7,0,0,0,1.74,2.92c.81.83,1.66,1.83,1.56,3s-1.6,2-2.24,1.06c-1.62-1.16-4-.2-5.15,1.46s-1.23,3.76-1.33,5.75l-.37,7.5c-.17,3.37.44,7.82,3.76,8.45,1.26.24,2.85-.1,3.61.94s-.23,2.68-1.43,3.38-2.68,1.12-3.36,2.33a4.78,4.78,0,0,0-.22,3.11,34.2,34.2,0,0,0,8.5,17.27,5.73,5.73,0,0,1,3.65-.39c1.19.4,2,2,1.19,2.94a6.72,6.72,0,0,1-1,.78c-1.47,1.15-1.22,3.55-.16,5.09s2.69,2.59,3.92,4c1.6,1.84,2.46,4.22,4.06,6s4.52,3,6.43,1.48c1.54,1.4-.19,3.78-.86,5.75-1.29,3.79,1.85,7.53,4.78,10.26,2.63,2.46,5.86,5.07,9.41,4.43,1.79-.32,3.35-1.46,5.12-1.89s4.12.29,4.36,2.09c.11.8-.23,1.64,0,2.42s1.22,1.46,2.1,1.87a81,81,0,0,0,14.33,5.12,7.22,7.22,0,0,0,4.38.13c1.38-.55,2.35-2.33,1.53-3.58.38-1.16,2.24-.74,2.93.26s.91,2.36,1.86,3.12a4.7,4.7,0,0,0,2.5.75l12.35,1.32a6,6,0,0,0,3.31-.27c2.16-1.07,2.91-4.6,5.32-4.55,4.89,4.34,12.73-1.71,19,.2-.11-1.19.19-2.88,1.39-2.85s1.44,1.68,2.17,2.61c1.14,1.43,3.38,1,5.1.39a71.14,71.14,0,0,0,21.35-12.27,7,7,0,0,1-2.81-3.38c.44-1.21,2.17-1.23,3.37-.78s2.52,1.16,3.69.64a3.93,3.93,0,0,0,1.63-1.76l5.64-9.42c.87-1.46,1.77-3.2,1.11-4.76a13,13,0,0,0-1.89-2.4c-.61-.82-.87-2.12-.07-2.76a4.44,4.44,0,0,0,6.46-.58,8.55,8.55,0,0,0,1.15-3.44L690.36,395a3.37,3.37,0,0,0,0-1.67c-.44-1.3-2.13-1.52-3.44-1.95s-2.5-2.23-1.37-3A9.24,9.24,0,0,1,690,386c-3-2.08-2.66-6.41-2.77-10s-2.23-8.15-5.79-7.54"/><path class="cls-3" d="M455.38,158.15a21.64,21.64,0,0,0-6.75-8,3,3,0,0,0-1.66-.71c-1.78,0-2.12,2.75-3.74,3.44s-3.46-1.23-4.46-2.91c-3.12-5.25-6.62-10.68-12-13.51s-13.08-1.8-15.4,3.62c-.75,1.76-.88,3.77-1.73,5.47s-2.94,3.05-4.67,2.12c-1.53-.83-1.86-2.84-2.76-4.34-1.45-2.42-4.39-3.45-7.11-4a43.65,43.65,0,0,0-19,.18c-1.53.36-3.2.93-3.92,2.32-1.11,2.16.6,5.14-.61,7.24-.89,1.55-3,1.89-4.8,1.43a36.37,36.37,0,0,1-5-2.26c-5.37-2.3-11.38-1-16.91.41-6.76,1.68-13.77,3.49-19,8a4.91,4.91,0,0,0-1.74,2.41c-.6,2.45,2,5.28.78,7.44-1.14,1.94-4.2,1.19-6.07-.2s-3.79-3.33-6.05-3.08a6.36,6.36,0,0,0-2.73,1.19,112.13,112.13,0,0,0-11.5,8.49c-1.19,1-2.47,2.27-2.34,3.87.2,2.4,3.44,3.91,3.34,6.3s-3.25,3-5.45,2.22-4.13-2.51-6.43-2.75c-2.53-.26-4.78,1.28-6.79,2.75-2.75,2-5.55,4.08-7.55,6.86s-3.1,6.45-2.07,9.84c.55,1.83,1.67,3.94.59,5.45-1.54,2-3.22-.08-5.76-.05-1.59,0-2.94,1-4.16,2-1.49,1.17-3.12,2.68-2.87,4.61.3,2.35,3,3.44,5.27,4.25s4.82,2.67,4.21,4.92a20.65,20.65,0,0,0-18.33,13.65c-1.28,3.72-1.32,8.32,1.38,11.36,1.92,2.15,5.23,3.75,5.16,6.59-.09,3-3.8,4-6.46,5.25-4.17,2-6.84,6.26-8,10.78s-1,9.31-.82,14c.07,1.68.21,3.52,1.34,4.8s3.31,1.69,5.16,1.9,3.92.62,5,2.16.2,4.14-1.59,3.58c-3.16.2-5.07,3.84-4.64,7s2.48,5.95,4.45,8.55l7.43,9.77c3.36,4.41,8.76,9.36,13.42,6.8,1.77-1,3.32-3,5.33-2.47s2.54,3.61,1.83,5.69-2,4.12-1.57,6.31c.35,1.68,1.69,3,3,4.12a57.08,57.08,0,0,0,28.37,13.08c1-1.7,2.14-3.5,4-4.19s4.51.5,4.53,2.51a10.92,10.92,0,0,1-.43,2c-.56,2.93,2.26,5.68,5.16,6.55s6,.53,8.93,1.06c3.84.69,7.38,2.8,11.23,3.48s8.55-.84,9.27-4.64c3.33.21,3.75,4.93,5,8.08,2.43,6.05,10.15,7.57,16.53,8,5.75.43,12.38.44,16-3.94,1.81-2.21,2.49-5.2,4.16-7.52s5.25-3.8,7.45-1.79c1,.9,1.44,2.29,2.52,3,1.3.91,3,.61,4.5.23a123,123,0,0,0,22.6-8c2.11-1,4.32-2.16,5.4-4.24s.37-5.3-1.92-6c-.77-1.84,1.9-3.2,3.79-2.63s3.57,2,5.51,2a7.18,7.18,0,0,0,3.8-1.57l16.22-10.79c1.47-1,3-2,3.7-3.68,1.47-3.53-1.35-8.7,1.6-11.07,10.44.51,13.49-15,23-18.89-1.39-1.39-2.8-3.8-1.33-5s3.49.66,5.36,1.08c2.87.65,5.12-2.14,6.53-4.65a110.89,110.89,0,0,0,12.74-36.91,11.2,11.2,0,0,1-6.93-1.41c-.74-2,1.31-3.72,3.23-4.36s4.24-1.09,5.11-2.93a6.42,6.42,0,0,0,.1-3.84l-3.13-17.5c-.49-2.7-1.25-5.8-3.68-7.09-1.47-.78-3.2-.68-4.79-1.09s-3.28-1.8-3-3.4a6.75,6.75,0,0,0,7.14-7.24,14.36,14.36,0,0,0-2.23-5.47l-12.56-21.64a5.75,5.75,0,0,0-1.73-2.11c-1.9-1.18-4.16.25-6.18,1s-5.36-.27-4.83-2.39a14.4,14.4,0,0,1,2.8-7.38c-5.73.36-9.94-5.36-13.86-9.77s-11.27-8-14.89-3.61"/><path class="cls-4" d="M488.22,648.8s-32.94-25.63-51.07-21.54S403.8,652.48,400.36,652s-24.49-13.36-32.52,1.21-14.48,25.66-27.06,25.55-24.31-8.82-35.22,5.3-22.41,61.95-22.41,61.95,39.1,34.55,73.4,19.58,9.39-24.34,24.67-28.33,22.1,10.61,39.3-3.16,5-19,15.75-22.29,39.09,6.56,52.39-51.06l4.84-8.18Z"/><path class="cls-5" d="M486.38,655.43s-137.47,32.09-189.06,84.38"/><path class="cls-6" d="M489.6,647.53s-31.24-39.34-54.67-42-49.14,13.44-53.17,11.65-25.18-23.31-39.92-11.24-26.36,21.14-41.6,16.2-26.53-18.52-44.6-8-48.42,55.87-48.42,55.87,35.68,51,82.47,48.58,19.73-21.72,39.65-20,23.22,19.54,48.83,11.81,12.6-17.89,26.75-17.14,45.24,21.84,81.12-33l8.67-6.65Z"/><path class="cls-7" d="M494.08,648.84s32-26.83,50.24-23.41,34.26,24,37.68,23.41,24-14.25,32.54,0,15.42,25.11,28,24.54,24-9.71,35.4,4,24.67,61.08,24.67,61.08-37.8,36-72.63,22.27-10.28-24-25.69-27.4-21.7,11.41-39.4-1.72-5.71-18.84-16.55-21.69-38.83,8-54.24-49.1l-5.14-8Z"/><path class="cls-8" d="M493.51,653.41s145.58,29.68,201,81.07"/><path class="cls-9" d="M488.94,652.54s-187.38-19-270.58,16"/><path class="cls-7" d="M315.29,581.34c13.8,13,31.23,6.59,37,15.11s9.28,27.71,19.07,31.83,29.08-1.44,31.72,3,12.31,33.89,45.22,25.49l46.12-6.33s-10.14-49.16-21.69-59.54-20.56-4.33-27.31-15.59-6.92-30.46-24.54-36.55-18.41,7-23.3,0S391.13,518,377.92,505.9s-49.78-7.55-78.18,9.46C299.74,515.36,301.5,568.31,315.29,581.34Z"/><path class="cls-10" d="M561.63,358.23c-2.89.85-6.6-1.17-8.74.95a5.89,5.89,0,0,0-1.29,2.61l-2.86,9.38c-.63,2.07-1.14,4.63.42,6.12,1,.95,2.52,1.07,3.82,1.54s2.6,1.8,2.08,3.08c-.67,1.66-3.23,1.12-4.72,2.12-1.25.84-1.46,2.57-1.55,4.07l-.35,6a18.34,18.34,0,0,0,.51,7.09c.78,2.26,2.71,4.29,5.09,4.43,2.74.17,5.4-2.11,8-1.28-.74,2.37-4.8,2.68-5,5.16-.1,1.22.86,2.25,1.75,3.09l6.8,6.43a7,7,0,0,0,3.55,2.19c2.22.32,4.12-1.48,5.63-3.14,1.16,1.73-2.16,4.05-1,5.81a2.76,2.76,0,0,0,1.54,1,113.19,113.19,0,0,0,17.27,4.47,2.16,2.16,0,0,0,1.13,0c1.18-.45.77-2.34,1.61-3.29s2.75-.25,3.23,1a6,6,0,0,1-.41,4,180.35,180.35,0,0,0,19.69,1.71c1.85.06,4-.08,5-1.65.68-1.08.5-2.47.76-3.72s1.45-2.58,2.62-2.07c1.4.61.89,2.88,1.91,4,.77.86,2.13.78,3.28.63l7.21-.93a20.61,20.61,0,0,0,5.66-1.29c2.94-1.28,5.09-3.84,7.13-6.31a4.6,4.6,0,0,0,1.23-2.29c.15-1.49-1.14-2.69-2.36-3.57,1.22-1.57,3.68-.59,5.66-.68,2.5-.12,4.54-2.24,5.37-4.6a19,19,0,0,0,.55-7.44c-.24-4.26-1.1-9.42-5.09-11-.25-1.3,1.2-2.3,2.5-2.53s2.76-.13,3.82-.92c1.69-1.25,1.34-3.84.68-5.83a44.74,44.74,0,0,0-4.38-9.41c-1.49-2.42-3.78-5-6.6-4.6-1,.14-2,.66-3,.86a2.42,2.42,0,0,1-2.73-1c-.38-.86.08-1.83.24-2.75a5.72,5.72,0,0,0-2.25-5.14,16.85,16.85,0,0,0-5.22-2.62L632,355.1a3.6,3.6,0,0,0-2.68-.25c-.67.31-1.08,1-1.68,1.45a2.88,2.88,0,0,1-4.38-2.26c0-.8,2.57-5.15,2.26-5.9s-.95-.9-1.7-1.16l-13.44-4.7a5.63,5.63,0,0,0-3.87-.39c-1.23.49-3.78,5.2-4.54,6.73-.86,1.28-1.62-.09-2.15-1.55s.09-5.43-.9-6.62-2.89-1.37-4.51-1.4c-5.3-.08-7.89.09-13.18,0a4,4,0,0,0-1.77,3.23c.14,1-.12,1.84.35,2.7s2.21,1.38,2.59,2.41c-.79,1.06-3.09,2.79-4,1.82.22-2.79-2.6-5-5.38-5.3s-4.21.61-6.75,1.78l-5.72,2.65a4.86,4.86,0,0,0-2.28,1.66c-.76,1.22-.3,2.84.46,4.06a21.42,21.42,0,0,1,2.3,3.64"/><path class="cls-11" d="M582.92,373.81c-2.76-.11-3.52-.07-6.28,0a1.36,1.36,0,0,0-.93.24,1.4,1.4,0,0,0-.36.87,44.34,44.34,0,0,0-.57,8,1.56,1.56,0,0,0,.24,1,2.3,2.3,0,0,0,1.09.51A3.17,3.17,0,0,1,578,388.3a4.76,4.76,0,0,0-3.56,3.35,7.9,7.9,0,0,0,.31,5.05,6.73,6.73,0,0,0,3.09,3.85c1.87.92,4.1.48,6.1-.11.72-.22,1.6-.42,2.15.09a1.67,1.67,0,0,1,.46,1c.35,1.83-.56,4,.56,5.46a4.69,4.69,0,0,0,1.47,1.14l2.72,1.59a11.89,11.89,0,0,0,3.22,1.48,4,4,0,0,0,3.39-.61c1.3-1.07,1.78-3.27,3.45-3.48s2.6,1.68,2.51,3.23a2.54,2.54,0,0,0,.09,1.23c.31.62,1.13.75,1.83.8l2.89.19c1.72.12,3.94-.08,4.46-1.73.26-.81,0-1.84.65-2.41a1.69,1.69,0,0,1,1-.38,4.58,4.58,0,0,1,4.39,2.09,3.15,3.15,0,0,0,.89,1.14,2.23,2.23,0,0,0,1.38.16,14.25,14.25,0,0,0,6-1.44c1.78-1.05,3.11-3.17,2.56-5.15-.14-.51-.38-1.11,0-1.52a1.21,1.21,0,0,1,.66-.35,9.21,9.21,0,0,1,2.86-.31,1.6,1.6,0,0,0,1.08-.18,1.4,1.4,0,0,0,.41-.84,23,23,0,0,0,.53-5.9,7.56,7.56,0,0,0-.71-3.26,3.24,3.24,0,0,0-2.64-1.82,11.55,11.55,0,0,0,2.16-3.51c.67-1.72.77-4-.7-5.09-1-.74-2.56-.87-3-2a4.39,4.39,0,0,1-.08-1.54,5.7,5.7,0,0,0-2.38-4.29,16.65,16.65,0,0,0-4.52-2.26l-4.25-1.61a3,3,0,0,0-1.26-.28c-1.29.11-2.18,1.84-3.44,1.55-1.57-.35-1.13-3.11-2.56-3.85a2.85,2.85,0,0,0-.91-.24l-8.34-1.11a2.38,2.38,0,0,0-2.16.43c-.71.84-.08,2.41-1,3s-2-.47-2.28-1.5-.39-2.31-1.34-2.81a3,3,0,0,0-1.26-.25c-4-.22-8.45-.3-11.54,2.28-.79.66-1.49,1.79-.94,2.67.37.6,1.17.78,1.71,1.24s-.44,2.41-1.15,2.36"/><path class="cls-10" d="M459.25,247.27c2.62-3.93,9.11-5.24,9.54-10a9.4,9.4,0,0,0-1.08-4.45l-6-14.14c-1.33-3.12-3.3-6.72-6.68-6.93-2.17-.13-4.1,1.25-6.14,2s-4.93.47-5.61-1.59c-.86-2.67,2.76-4.61,3.53-7.31.66-2.27-.83-4.55-2.24-6.45l-5.64-7.58c-2.23-3-4.55-6.08-7.76-8s-7.58-2.42-10.58-.19c-3.47,2.57-4.36,8-8.34,9.63-1.5-3.6,3-8.07.82-11.26-1.11-1.58-3.3-1.84-5.22-1.95l-14.65-.87c-2.21-.13-4.59-.22-6.48.95-3,1.85-3.45,5.93-3.6,9.45-3.14-.91-1.47-7.05-4.58-8a4.4,4.4,0,0,0-2.83.4A176.61,176.61,0,0,0,350.43,193a3.38,3.38,0,0,0-1.34,1.14c-1,1.73,1.43,3.59,1.39,5.57s-3.06,3.09-4.91,2-2.75-3.19-3.52-5.18a288.14,288.14,0,0,0-25.38,17.8c-2.27,1.79-4.76,4.17-4.35,7,.28,2,1.89,3.48,2.84,5.25s.86,4.56-1.07,5.12c-2.3.68-4-2.56-6.34-2.9-1.8-.26-3.35,1.2-4.58,2.54l-7.72,8.39a32.52,32.52,0,0,0-5.51,7.26c-2.23,4.51-2.23,9.75-2.19,14.77a7.12,7.12,0,0,0,.82,4c1.32,1.95,4.1,2.09,6.44,1.92.12,3.11-3.82,4.41-6.1,6.52-2.89,2.66-3.22,7.27-1.83,10.95s4.14,6.63,6.84,9.49c4.6,4.87,10.83,10.2,17.17,8,1.62,1.3.89,4-.45,5.56s-3.18,2.93-3.66,4.95c-.76,3.2,2.26,6,5.06,7.69a70.51,70.51,0,0,0,14.75,6.89c4.23,1.4,9.55,2.14,12.57-1.14,1.11-1.2,1.72-2.79,2.75-4.07s2.82-2.24,4.3-1.52c1.32.64,1.74,2.27,2.49,3.54,1.55,2.65,4.81,3.91,7.88,3.91s6-1.08,8.91-2.13L377.84,322c1.36-.49,2.84-1.1,3.46-2.4.5-1.06.3-2.31.56-3.44.71-3.14,5.56-4.23,7.55-1.71.78,1,2.11,8.78,3.22,9.37s2.06.12,3.23-.32l20.88-7.91c1.95-.73,4.05-1.6,5-3.43s-.7-10.06-1.32-12.66c-.27-2.41,2-1.53,4.13-.31s5.38,6.62,7.77,7.05,4.84-1.27,6.83-2.87c6.44-5.24,9.39-8.06,15.83-13.3a6.24,6.24,0,0,0-1.12-5.65c-1.16-1-1.71-2.33-3.15-2.9-1.6-.63-4.05.58-5.55-.27-.11-2.07.9-6.47,2.95-6.21,2.55,3.57,8.22,3.45,11.81.94s4.45-5,6.31-8.94l4.21-8.95a7.82,7.82,0,0,0,1.07-4.3c-.33-2.23-2.51-3.71-4.66-4.42s-4.47-.93-6.43-2"/><path class="cls-11" d="M418,250c3.42-2.64,4.31-3.46,7.56-6.32a2.16,2.16,0,0,0,.87-1.22,2.21,2.21,0,0,0-.44-1.42,69.74,69.74,0,0,0-7.35-10.15,2.51,2.51,0,0,0-1.31-.95,3.37,3.37,0,0,0-1.82.49,5,5,0,0,1-6.26-2.75,7.51,7.51,0,0,0,.91-7.62,12.38,12.38,0,0,0-5.47-5.75,10.53,10.53,0,0,0-7.61-1.51c-3.17.78-5.41,3.55-7.2,6.28-.65,1-1.5,2.11-2.68,2.06a2.61,2.61,0,0,1-1.51-.68c-2.27-1.84-3.33-5.34-6.18-6a7.38,7.38,0,0,0-2.92.11l-4.87.82a18.56,18.56,0,0,0-5.36,1.49,6.18,6.18,0,0,0-3.45,4.14c-.49,2.59,1.15,5.73-.65,7.66s-4.81.61-6.27-1.35a3.94,3.94,0,0,0-1.34-1.38c-1-.44-2.12.23-3,.88l-3.66,2.68c-2.19,1.6-4.65,4.07-3.62,6.58.51,1.23,1.84,2.23,1.66,3.56a2.76,2.76,0,0,1-.79,1.43,7.2,7.2,0,0,1-7.38,1.92,4.74,4.74,0,0,0-2.22-.48,3.54,3.54,0,0,0-1.82,1.2c-2.28,2.3-4.62,4.7-5.71,7.75s-.54,6.93,2.13,8.76c.68.47,1.57.95,1.58,1.78a2,2,0,0,1-.45,1.09,14.16,14.16,0,0,1-3.12,3.25c-.47.36-1,.73-1.12,1.31a2.13,2.13,0,0,0,.36,1.43,36.26,36.26,0,0,0,5.31,7.62,11.91,11.91,0,0,0,4.14,3.2,5.11,5.11,0,0,0,5-.47,18.25,18.25,0,0,0,.94,6.39c.93,2.73,3.09,5.55,6,5.4,1.93-.1,3.95-1.53,5.63-.57a6.84,6.84,0,0,1,1.66,1.77,9,9,0,0,0,7.18,2.76,26.62,26.62,0,0,0,7.71-1.84l6.73-2.36a4.57,4.57,0,0,0,1.8-.94c1.44-1.43.76-4.4,2.57-5.33,2.24-1.16,4.49,2.6,7,2.06a4.33,4.33,0,0,0,1.33-.65l11.14-7.07c1-.64,2.14-1.49,2.15-2.69,0-1.72-2.32-3-1.89-4.64s2.88-1.44,4.26-.49,2.8,2.37,4.45,2a4.63,4.63,0,0,0,1.76-1c5-3.79,10.46-8.17,11.57-14.38.28-1.59,0-3.66-1.57-4.16-1.06-.35-2.18.25-3.3.23s-1.9-3.34-1-4"/><path class="cls-8" d="M310.69,519.08S436.55,592.33,485,643.78"/><path class="cls-6" d="M642.71,533.49c-18.27,5.14-21.69,23.41-32,24s-28.54-6.28-37.11,0-13.7,25.69-18.84,25.69-35.39-6.85-45.1,25.69l-18.27,42.82s47.39,16.56,62.23,12,14.27-15.41,27.4-15.41,29.69,9.7,44-2.29,3.42-19.41,12-20,21.12,5.14,38.25,0,32-38.82,32-71.94C707.31,554,661,528.35,642.71,533.49Z"/><path class="cls-9" d="M498,650.59s136.45-81.84,199.25-91"/></svg>